<?xml version="1.0" standalone="no"?>
<!DOCTYPE svg PUBLIC "-//W3C//DTD SVG 20010904//EN"
 "http://www.w3.org/TR/2001/REC-SVG-20010904/DTD/svg10.dtd">
<svg version="1.0" xmlns="http://www.w3.org/2000/svg"
 width="512.000000pt" height="512.000000pt" viewBox="0 0 512.000000 512.000000"
 preserveAspectRatio="xMidYMid meet">
<metadata>
Created by potrace 1.11, written by Peter Selinger 2001-2013
</metadata>
<g transform="translate(0.000000,512.000000) scale(0.100000,-0.100000)"
fill="#000000" stroke="none">
<path d="M2793 4808 c-45 -12 -50 -26 -8 -22 l35 3 20 -67 c34 -108 43 -242
26 -372 -3 -25 -8 -63 -11 -85 -3 -22 -11 -77 -19 -122 -7 -46 -11 -83 -8 -83
2 0 -1 -7 -8 -15 -11 -13 -17 -11 -46 22 -36 40 -42 42 -124 45 -30 2 -47 4
-37 6 26 5 20 19 -10 25 -16 3 -31 0 -35 -6 -5 -9 -10 -9 -20 1 -6 6 -22 12
-34 12 -13 0 -26 5 -29 10 -4 6 -10 8 -14 5 -5 -2 -16 4 -25 14 -12 13 -27 17
-49 14 -18 -2 -39 -3 -47 -3 -8 0 -23 0 -33 1 -10 0 -27 9 -38 20 -23 23 -50
24 -89 4 -27 -14 -33 -14 -60 0 -34 18 -62 19 -77 4 -13 -13 -63 -15 -88 -2
-25 12 -34 11 -63 -6 -13 -7 -26 -10 -29 -8 -2 3 -17 1 -33 -5 -19 -6 -35 -6
-47 0 -20 11 -50 0 -68 -25 -6 -8 -21 -12 -35 -11 -17 2 -24 -2 -22 -10 1 -8
-2 -11 -8 -7 -6 3 -28 8 -49 10 -33 3 -44 -2 -80 -34 -23 -21 -39 -40 -36 -43
3 -3 -1 -8 -10 -12 -9 -3 -13 -2 -10 4 4 6 -5 5 -19 -1 -14 -7 -23 -16 -20
-20 3 -5 -3 -6 -12 -2 -12 4 -15 3 -10 -5 5 -8 2 -10 -9 -6 -9 4 -25 -2 -38
-13 -12 -11 -37 -26 -54 -33 -18 -7 -33 -18 -33 -24 0 -6 -8 -16 -19 -21 -37
-20 -120 -90 -126 -107 -4 -10 -10 -18 -15 -18 -6 0 -26 -16 -46 -35 -19 -19
-40 -35 -45 -35 -5 0 -11 -11 -15 -25 -3 -14 -10 -25 -15 -25 -5 0 -9 -5 -9
-11 0 -5 5 -7 12 -3 7 4 8 3 4 -5 -4 -6 -11 -9 -16 -6 -9 5 -23 -7 -60 -51
-27 -33 -123 -189 -123 -201 0 -7 -3 -13 -7 -13 -13 0 -71 -103 -66 -117 3 -8
2 -12 -3 -9 -17 11 -38 -31 -74 -144 -56 -174 -75 -257 -74 -311 1 -27 -2 -49
-7 -49 -4 0 -6 -7 -2 -15 3 -8 1 -15 -3 -15 -5 0 -7 -20 -5 -45 3 -25 0 -54
-6 -65 -8 -15 -6 -21 7 -29 17 -10 17 -10 1 -11 -15 0 -16 -4 -8 -25 5 -14 6
-25 2 -25 -4 0 -9 -11 -10 -26 -1 -14 2 -23 8 -19 6 4 7 -2 1 -18 -7 -17 -6
-29 2 -37 9 -10 9 -11 -2 -5 -11 6 -13 4 -7 -11 7 -18 19 -154 17 -203 -1 -15
4 -21 12 -18 10 4 12 -3 9 -25 -3 -22 -1 -29 7 -24 14 9 10 -16 -4 -26 -6 -5
-4 -8 5 -8 9 0 16 -10 18 -24 1 -14 11 -43 23 -65 20 -38 27 -60 28 -89 1 -7
5 -11 10 -7 5 3 12 1 16 -5 3 -5 2 -10 -3 -10 -5 0 -7 -11 -4 -25 2 -14 9 -25
14 -25 5 0 6 5 2 12 -5 7 -3 8 5 3 9 -5 10 -10 2 -18 -17 -17 -13 -29 7 -18
15 8 18 6 17 -14 0 -13 -3 -27 -8 -31 -10 -11 -9 -24 4 -24 5 0 7 5 4 10 -3 6
-2 10 2 10 5 0 16 -16 25 -35 8 -19 11 -32 7 -29 -5 3 -9 0 -9 -5 0 -6 6 -11
14 -11 10 0 13 -7 11 -20 -2 -11 0 -18 5 -15 4 3 12 -8 18 -23 5 -16 17 -35
25 -44 9 -9 18 -22 19 -29 2 -8 11 -20 20 -27 9 -7 15 -18 12 -25 -7 -18 248
-277 272 -277 4 0 27 -16 51 -36 38 -31 42 -38 31 -52 -11 -13 -10 -15 5 -9
13 5 20 0 28 -21 6 -15 10 -29 9 -31 -2 -5 68 -51 79 -51 6 0 11 -5 11 -11 0
-5 -5 -7 -12 -3 -7 4 -8 3 -4 -5 6 -9 11 -9 22 0 8 6 14 8 14 4 0 -4 6 -2 14
4 17 14 29 -9 19 -36 -4 -10 -2 -14 5 -9 15 9 26 -14 13 -27 -9 -9 -11 -7 -6
8 l7 20 -17 -20 c-9 -11 -21 -19 -26 -18 -5 2 -9 -2 -9 -7 0 -6 -5 -10 -11
-10 -5 0 -8 4 -5 8 3 5 -1 9 -8 9 -8 0 -12 -6 -9 -14 3 -7 12 -13 20 -13 9 0
13 -6 10 -14 -4 -11 -1 -13 11 -9 14 5 14 3 -3 -17 -12 -14 -14 -20 -5 -15 21
13 39 15 45 5 3 -5 16 -7 30 -4 20 3 23 1 20 -17 -3 -16 -1 -18 9 -10 7 6 17
7 21 3 5 -4 5 -1 1 6 -4 6 -3 12 2 12 22 0 21 -31 -1 -40 -19 -9 -18 -9 10 -6
25 3 32 0 37 -17 l5 -21 24 22 c17 16 24 18 24 8 0 -8 -5 -12 -11 -9 -6 3 -6
0 1 -7 10 -11 15 -11 28 0 9 8 15 8 15 2 0 -6 9 -9 20 -7 11 2 19 1 19 -3 -3
-20 2 -25 12 -12 8 12 9 11 4 -6 -4 -15 0 -24 11 -28 19 -7 37 2 29 15 -4 5 1
9 10 9 9 0 14 -4 11 -9 -4 -5 2 -8 11 -6 10 2 22 4 26 4 5 1 6 5 2 10 -3 5 0
13 6 17 7 4 9 3 6 -2 -3 -6 3 -15 13 -22 16 -10 21 -9 29 6 14 23 14 -3 0 -31
-10 -22 -10 -22 6 -2 14 17 17 18 25 5 5 -8 10 -19 10 -24 0 -5 3 -7 6 -4 3 4
1 16 -6 27 -6 12 -7 21 -1 21 5 0 12 -8 16 -17 6 -17 7 -17 19 -1 15 20 31 25
20 6 -5 -8 -3 -8 7 -2 8 5 23 10 34 11 60 6 71 9 83 23 8 8 11 10 8 4 -9 -19
33 -24 45 -6 9 15 10 15 5 -2 -5 -14 -2 -17 9 -12 9 3 14 2 11 -3 -3 -5 5 -8
19 -8 14 0 22 3 20 8 -3 4 3 6 14 4 11 -2 22 3 25 12 5 12 9 13 21 3 8 -6 20
-8 27 -4 10 6 9 3 -1 -9 -9 -12 -10 -17 -2 -17 7 0 9 -5 5 -11 -4 -8 -11 -4
-18 9 l-11 22 -33 -20 c-17 -11 -32 -25 -31 -32 0 -10 2 -10 6 0 2 6 10 9 15
6 7 -5 8 -2 3 6 -6 10 -4 12 9 7 10 -4 15 -3 11 3 -3 6 1 10 10 10 9 0 14 -4
11 -9 -3 -5 1 -11 9 -15 8 -3 17 -1 20 5 4 5 12 6 18 2 7 -4 6 0 -2 10 -15 19
-1 23 17 5 9 -9 12 -9 12 1 0 7 5 9 10 6 6 -4 8 -10 6 -13 -2 -4 11 -8 29 -8
19 0 32 3 29 8 -3 4 0 8 5 8 6 0 11 5 11 11 0 8 -4 9 -13 0 -8 -6 -18 -7 -22
-3 -5 4 -4 1 0 -7 6 -11 4 -13 -9 -8 -10 4 -20 7 -22 7 -2 0 -4 4 -4 9 0 5 11
8 25 6 14 -1 28 2 31 7 9 15 33 -12 27 -30 -3 -9 -3 -14 1 -11 4 4 9 17 11 29
2 12 7 25 11 29 4 3 4 -2 1 -11 -8 -23 4 -23 35 1 24 19 25 19 40 1 9 -10 13
-22 10 -26 -4 -5 1 -2 11 5 10 8 16 19 14 25 -3 6 6 11 19 11 13 0 24 -4 24
-10 0 -5 7 1 16 13 8 12 20 19 26 16 6 -4 15 0 20 7 8 11 9 10 4 -3 -3 -10 -2
-17 2 -16 4 1 15 -2 25 -7 10 -4 23 -2 30 4 9 7 17 7 24 0 6 -6 10 -5 10 5 0
14 -14 16 -34 3 -12 -8 -43 1 -43 12 0 4 17 7 38 7 23 0 36 4 35 12 -3 12 37
-1 66 -22 11 -8 13 -8 8 1 -4 7 1 14 13 18 11 3 20 11 20 16 0 5 -11 2 -24 -6
-23 -16 -24 -15 -19 5 4 14 8 18 13 10 6 -9 9 -9 15 0 5 8 14 5 31 -11 13 -12
24 -17 24 -11 0 7 -4 12 -9 12 -5 0 -12 7 -15 16 -3 8 -2 12 4 9 6 -3 10 0 10
7 0 9 3 9 10 -2 5 -8 10 -11 10 -7 0 4 10 2 23 -4 l22 -12 -20 23 -20 23 30
-19 30 -18 -18 20 c-14 17 -14 21 -2 21 8 0 11 -5 8 -10 -4 -6 1 -8 11 -4 10
4 15 3 11 -3 -3 -6 -1 -10 4 -10 6 0 12 7 12 15 1 8 2 21 3 28 1 7 11 11 25 9
17 -3 21 0 15 10 -6 11 -5 11 8 0 9 -7 25 -12 35 -10 12 2 18 -3 17 -14 -2
-24 1 -23 22 10 13 21 14 24 2 14 -13 -10 -17 -10 -21 1 -3 9 2 13 16 12 12
-1 26 3 30 9 6 7 7 5 4 -6 -3 -9 2 -22 11 -30 15 -12 16 -11 3 5 -13 17 -12
18 15 12 27 -5 28 -5 5 5 -26 12 -19 27 14 32 17 3 27 11 24 21 0 1 -2 10 -4
20 -3 15 -1 16 13 5 13 -11 15 -11 10 2 -4 12 1 16 17 15 13 0 27 -4 32 -8 4
-5 -1 -7 -12 -5 -12 2 -19 -2 -18 -10 2 -6 -4 -12 -12 -12 -8 0 -14 -3 -14 -8
4 -22 -3 -34 -16 -29 -8 4 -17 1 -21 -5 -4 -7 -3 -8 4 -4 7 4 12 2 12 -3 0
-19 18 -12 25 9 4 11 11 17 17 14 6 -4 9 -3 6 2 -3 5 0 15 8 22 8 7 14 9 14 5
0 -4 4 -2 9 6 7 11 13 12 24 3 11 -9 14 -9 14 3 0 8 -3 12 -7 10 -3 -2 -12 0
-20 6 -13 7 -12 9 3 9 9 0 17 5 17 10 0 7 -6 7 -20 0 -14 -7 -20 -7 -20 0 0 5
7 10 16 10 11 0 14 5 10 16 -5 13 -4 14 7 6 8 -7 17 -8 22 -4 4 4 4 -3 1 -16
-6 -19 -4 -22 16 -18 13 2 22 9 21 15 -2 6 1 11 6 11 6 0 9 9 8 20 -1 11 -6
20 -12 20 -6 0 -7 3 0 8 6 4 11 14 13 22 3 12 1 12 -9 3 -7 -7 -13 -26 -14
-43 -2 -41 -15 -51 -15 -12 0 18 -3 31 -7 31 -20 -3 -34 2 -29 10 3 5 0 14 -8
20 -11 9 -15 9 -18 -1 -3 -8 -9 -5 -17 10 -9 18 -9 22 1 20 7 -2 12 2 11 8 -1
6 14 11 33 12 21 1 32 -3 29 -8 -4 -6 -11 -8 -16 -5 -5 4 -16 2 -25 -3 -11 -6
-13 -11 -5 -16 6 -4 11 -2 11 3 0 6 5 11 11 11 5 0 8 -4 5 -9 -3 -5 0 -14 7
-20 10 -8 14 -7 14 4 0 8 -5 11 -10 8 -6 -3 -7 -1 -3 5 14 23 26 11 21 -20 -4
-24 -3 -29 5 -18 5 8 10 23 10 33 0 9 5 17 11 17 5 0 7 -5 4 -10 -3 -5 -1 -10
4 -10 13 0 14 10 2 29 -5 8 -14 10 -21 6 -8 -5 -11 -3 -8 6 3 8 11 13 17 12 6
-2 11 0 11 5 0 4 7 15 15 26 13 17 15 17 30 2 19 -18 24 -19 44 -7 11 7 9 13
-8 30 -11 11 -21 17 -21 13 0 -4 5 -13 12 -20 6 -6 9 -15 5 -18 -7 -8 -42 25
-42 40 0 6 6 17 15 24 8 8 9 11 3 7 -7 -3 -13 -1 -13 4 0 10 8 13 26 10 3 0
15 6 28 15 17 10 26 12 34 4 8 -8 9 -5 5 11 -4 15 -1 21 11 21 10 0 14 5 11
10 -3 6 -3 16 2 23 8 13 10 18 12 40 0 8 25 38 54 68 29 30 66 80 81 111 16
32 33 58 38 58 4 0 7 3 6 8 -2 9 13 45 22 52 21 17 48 73 60 123 10 42 18 57
31 57 22 0 37 46 29 87 -4 17 -3 36 2 41 5 5 11 24 13 43 6 48 9 61 23 86 14
25 16 53 4 53 -5 0 -8 20 -8 45 1 25 2 45 4 45 12 0 66 -50 86 -80 23 -35 52
-107 64 -160 13 -55 6 -195 -11 -227 -19 -36 -21 -43 -9 -43 18 0 52 82 57
137 4 52 -4 100 -38 218 -12 41 -50 98 -95 144 -54 53 -54 53 -58 126 -2 39 0
86 5 103 8 26 5 35 -20 64 -17 18 -25 34 -19 36 7 3 6 12 -5 28 -8 13 -13 24
-11 24 3 0 -1 18 -9 40 -8 22 -13 40 -11 40 2 0 -3 21 -11 48 -9 26 -17 70
-19 97 -2 53 -8 90 -18 123 -7 21 -6 21 109 39 59 9 295 9 345 0 19 -3 66 -11
104 -18 38 -6 75 -16 81 -23 20 -19 35 -53 35 -77 0 -28 8 -20 20 19 7 26 4
38 -15 66 l-23 34 26 -7 c53 -13 82 -3 82 30 0 20 -24 25 -49 10 -17 -11 -123
38 -114 52 3 6 1 7 -5 3 -6 -3 -64 11 -130 33 -163 54 -208 61 -402 66 -74 2
-153 1 -175 -3 -45 -9 -75 -5 -75 9 0 5 6 8 13 6 7 -1 13 12 15 33 3 41 -26
76 -68 82 -35 5 -50 16 -50 37 0 10 -9 26 -20 36 -11 10 -20 15 -20 11 0 -4
-12 5 -27 19 -15 14 -31 25 -36 25 -4 0 -5 4 -2 10 3 5 -10 20 -29 32 -20 13
-36 27 -36 31 0 5 -12 24 -26 42 -25 33 -27 75 -3 75 5 0 9 6 9 13 0 6 14 39
31 72 17 33 46 98 65 145 36 89 110 224 175 323 39 59 48 90 28 102 -12 8 -20
2 -23 -18 -2 -15 -27 -56 -48 -78 -31 -34 -98 -119 -143 -184 -28 -38 -53 -74
-57 -80 -4 -5 -41 -59 -82 -120 -45 -67 -79 -108 -88 -106 -7 2 -26 5 -43 7
-16 1 -31 7 -33 13 -2 6 -8 11 -14 11 -11 0 -39 26 -33 31 2 3 -10 12 -26 21
-18 11 -27 13 -24 5 4 -6 -1 -3 -9 7 -9 11 -16 16 -16 10 0 -5 -5 -1 -11 9 -6
9 -15 14 -21 11 -7 -4 -8 -2 -4 4 4 7 -7 17 -27 26 l-34 14 6 78 c17 243 -5
527 -54 690 -17 58 -26 65 -72 52z m257 -1216 c0 -5 -7 -9 -15 -9 -8 0 -12 4
-9 9 3 4 9 8 15 8 5 0 9 -4 9 -8z m75 -2 c3 -5 1 -10 -4 -10 -6 0 -11 5 -11
10 0 6 2 10 4 10 3 0 8 -4 11 -10z m-5 -71 c0 -5 -9 -4 -19 3 -11 7 -17 16
-14 20 5 10 33 -10 33 -23z m-509 -76 c13 -16 12 -17 -3 -4 -17 13 -22 21 -14
21 2 0 10 -8 17 -17z m-1146 -2373 c4 -6 11 -7 17 -4 7 5 8 2 4 -5 -5 -7 -11
-10 -14 -7 -3 3 -12 0 -21 -7 -14 -11 -15 -10 -1 7 14 18 13 19 -3 13 -11 -4
-16 -3 -12 3 8 13 22 13 30 0z m5 -50 c0 -5 -2 -10 -4 -10 -3 0 -8 5 -11 10
-3 6 -1 10 4 10 6 0 11 -4 11 -10z m40 4 c0 -8 -19 -13 -24 -6 -3 5 1 9 9 9 8
0 15 -2 15 -3z m-64 -69 c4 -8 9 -13 13 -11 4 3 8 -6 9 -19 1 -21 -10 -26 -38
-15 -3 1 -9 1 -15 0 -5 -1 -7 2 -2 6 4 4 -1 16 -10 27 -10 11 -13 17 -6 14 6
-4 14 -3 18 3 9 15 25 12 31 -5z m152 -84 c2 -1 0 -7 -5 -13 -4 -7 -8 -16 -8
-20 0 -3 -4 -10 -9 -15 -5 -5 -7 2 -3 15 5 20 2 23 -13 19 -12 -3 -17 0 -14 7
4 10 29 13 52 7z m145 -53 c-6 -7 -9 -21 -8 -30 3 -18 -10 -25 -19 -10 -5 9
20 52 31 52 3 0 1 -6 -4 -12z m45 -29 c-3 -8 -7 -3 -11 10 -4 17 -3 21 5 13 5
-5 8 -16 6 -23z m226 13 c3 -5 -1 -9 -9 -9 -8 0 -12 4 -9 9 3 4 7 8 9 8 2 0 6
-4 9 -8z m320 0 c3 -5 -1 -9 -9 -9 -8 0 -12 4 -9 9 3 4 7 8 9 8 2 0 6 -4 9 -8z"/>
<path d="M1416 951 c-7 -10 28 -44 37 -35 7 7 -14 44 -25 44 -4 0 -9 -4 -12
-9z m25 -18 c13 -16 12 -17 -3 -4 -17 13 -22 21 -14 21 2 0 10 -8 17 -17z"/>
<path d="M3745 1360 c-3 -6 1 -7 9 -4 18 7 21 14 7 14 -6 0 -13 -4 -16 -10z"/>
<path d="M3527 1284 c-3 -4 -2 -15 4 -25 6 -12 6 -19 0 -19 -5 0 -12 5 -14 10
-3 6 -4 5 -3 -2 2 -7 9 -13 17 -13 8 0 12 7 10 15 -2 8 -4 21 -4 28 0 14 -1
14 -10 6z"/>
<path d="M3660 1286 c0 -2 8 -10 18 -17 15 -13 16 -12 3 4 -13 16 -21 21 -21
13z"/>
<path d="M3426 1261 c-4 -5 -2 -12 4 -16 6 -4 7 -11 4 -17 -4 -6 3 -5 16 2 12
6 20 13 18 14 -1 1 -10 7 -20 14 -10 8 -19 9 -22 3z"/>
<path d="M3471 1222 l-20 -28 25 0 c16 0 21 3 14 10 -16 16 -12 30 5 16 10 -9
15 -9 15 -1 0 6 -5 11 -11 11 -5 0 -7 5 -4 10 14 22 -5 8 -24 -18z"/>
<path d="M3575 1240 c3 -5 8 -10 11 -10 2 0 4 5 4 10 0 6 -5 10 -11 10 -5 0
-7 -4 -4 -10z"/>
<path d="M3775 1240 c3 -5 8 -10 11 -10 2 0 4 5 4 10 0 6 -5 10 -11 10 -5 0
-7 -4 -4 -10z"/>
<path d="M3670 1237 c0 -2 6 -10 14 -16 11 -9 16 -9 22 1 4 7 4 10 -1 6 -4 -4
-14 -3 -22 3 -7 6 -13 9 -13 6z"/>
<path d="M3550 1220 c0 -5 5 -10 10 -10 6 0 10 5 10 10 0 6 -4 10 -10 10 -5 0
-10 -4 -10 -10z"/>
<path d="M1144 1198 c-4 -7 -2 -8 5 -4 17 11 41 -12 34 -31 -4 -10 3 -8 20 8
32 27 31 26 12 26 -8 0 -11 -5 -8 -10 3 -5 0 -7 -8 -5 -8 3 -13 10 -12 15 2
13 -35 14 -43 1z"/>
<path d="M3510 1188 c-10 -21 -10 -21 3 -5 16 19 28 22 25 6 -2 -6 4 -14 12
-16 12 -4 12 -3 2 5 -8 5 -13 13 -12 18 4 19 -19 13 -30 -8z"/>
<path d="M3341 1173 c7 -12 15 -20 18 -17 3 2 -3 12 -13 22 -17 16 -18 16 -5
-5z"/>
<path d="M3423 1167 c-7 -14 -7 -30 -3 -37 5 -8 6 -19 2 -25 -3 -5 2 -4 11 4
18 15 23 26 7 16 -5 -3 -10 -1 -10 4 0 6 4 11 10 11 5 0 14 9 20 20 7 14 7 20
0 20 -5 0 -10 -7 -10 -15 0 -8 -5 -15 -11 -15 -6 0 -8 9 -4 20 9 27 1 25 -12
-3z"/>
<path d="M3590 1182 c0 -6 5 -14 10 -17 6 -4 7 -11 4 -17 -4 -7 -2 -8 5 -4 9
6 9 12 -1 24 -7 10 -14 19 -15 21 -2 2 -3 -1 -3 -7z"/>
<path d="M3476 1162 c-3 -5 1 -9 9 -9 8 0 12 4 9 9 -3 4 -7 8 -9 8 -2 0 -6 -4
-9 -8z"/>
<path d="M3515 1160 c-3 -5 -1 -10 4 -10 6 0 11 5 11 10 0 6 -2 10 -4 10 -3 0
-8 -4 -11 -10z"/>
<path d="M3546 1138 c3 -4 9 -8 15 -8 5 0 9 4 9 8 0 5 -7 9 -15 9 -8 0 -12 -4
-9 -9z"/>
<path d="M3474 1081 c0 -16 3 -27 6 -25 7 8 7 54 0 54 -4 0 -7 -13 -6 -29z"/>
<path d="M3438 1083 c7 -3 16 -2 19 1 4 3 -2 6 -13 5 -11 0 -14 -3 -6 -6z"/>
<path d="M3399 1053 c-13 -16 -12 -17 4 -4 16 13 21 21 13 21 -2 0 -10 -8 -17
-17z"/>
<path d="M3371 1044 c0 -11 3 -14 6 -6 3 7 2 16 -1 19 -3 4 -6 -2 -5 -13z"/>
<path d="M1372 1033 c-12 -13 -5 -18 20 -14 4 0 5 -6 1 -15 -3 -9 -9 -12 -12
-7 -8 11 -51 15 -51 5 0 -5 6 -9 13 -9 6 0 24 -3 39 -6 33 -7 42 11 19 39 -14
17 -19 19 -29 7z"/>
<path d="M1400 1040 c0 -5 5 -10 10 -10 6 0 10 5 10 10 0 6 -4 10 -10 10 -5 0
-10 -4 -10 -10z"/>
<path d="M3306 1015 c-11 -8 -15 -15 -9 -15 6 0 16 7 23 15 16 19 11 19 -14 0z"/>
<path d="M3326 1001 c-14 -15 -15 -21 -4 -27 7 -4 10 -3 5 1 -4 5 0 17 10 27
9 10 14 18 11 18 -3 0 -13 -9 -22 -19z"/>
<path d="M1266 1002 c-3 -5 1 -9 9 -9 8 0 12 4 9 9 -3 4 -7 8 -9 8 -2 0 -6 -4
-9 -8z"/>
<path d="M3266 981 c-4 -5 3 -7 14 -4 23 6 26 13 6 13 -8 0 -17 -4 -20 -9z"/>
<path d="M1335 949 c-4 -6 -5 -12 -2 -15 2 -3 7 2 10 11 7 17 1 20 -8 4z"/>
<path d="M3045 937 c-11 -7 -21 -19 -23 -27 -2 -11 1 -11 11 3 16 20 52 24 41
5 -4 -7 2 -4 14 6 23 20 31 36 9 17 -8 -6 -17 -7 -23 -1 -5 5 -17 4 -29 -3z"/>
<path d="M3154 942 c3 -5 0 -12 -6 -15 -7 -2 -10 -7 -7 -11 3 -4 12 0 18 8 9
11 9 16 0 22 -7 4 -9 3 -5 -4z"/>
<path d="M1354 926 c1 -8 5 -18 8 -22 4 -3 5 1 4 10 -1 8 -5 18 -8 22 -4 3 -5
-1 -4 -10z"/>
<path d="M1404 879 c-4 -7 -3 -9 4 -5 6 3 23 1 39 -5 15 -5 24 -6 18 -1 -18
17 -53 23 -61 11z"/>
<path d="M2921 874 c0 -11 3 -14 6 -6 3 7 2 16 -1 19 -3 4 -6 -2 -5 -13z"/>
<path d="M3010 885 c0 -7 30 -13 34 -7 3 4 -4 9 -15 9 -10 1 -19 0 -19 -2z"/>
<path d="M2775 840 c3 -5 14 -10 23 -10 15 0 15 2 2 10 -20 13 -33 13 -25 0z"/>
<path d="M2633 803 c0 -9 4 -10 14 -2 7 6 13 12 13 14 0 1 -6 2 -13 2 -8 0
-14 -6 -14 -14z"/>
<path d="M1550 800 c0 -5 5 -10 11 -10 5 0 7 5 4 10 -3 6 -8 10 -11 10 -2 0
-4 -4 -4 -10z"/>
<path d="M1635 800 c-3 -5 -1 -10 4 -10 6 0 11 5 11 10 0 6 -2 10 -4 10 -3 0
-8 -4 -11 -10z"/>
<path d="M1660 800 c0 -5 5 -10 11 -10 5 0 7 5 4 10 -3 6 -8 10 -11 10 -2 0
-4 -4 -4 -10z"/>
<path d="M2497 792 c-14 -15 -15 -19 -2 -19 8 0 12 4 9 8 -2 4 2 9 8 12 7 2
10 7 7 11 -3 3 -13 -2 -22 -12z"/>
<path d="M2666 802 c-3 -5 1 -9 9 -9 8 0 15 4 15 9 0 4 -4 8 -9 8 -6 0 -12 -4
-15 -8z"/>
<path d="M2581 787 c-6 -9 -7 -18 0 -27 8 -12 9 -11 7 5 -2 14 2 19 15 17 21
-3 23 4 3 11 -8 3 -19 0 -25 -6z"/>
<path d="M1595 780 c3 -5 8 -10 11 -10 2 0 4 5 4 10 0 6 -5 10 -11 10 -5 0 -7
-4 -4 -10z"/>
<path d="M1650 775 c0 -7 30 -13 34 -7 3 4 -4 9 -15 9 -10 1 -19 0 -19 -2z"/>
<path d="M2053 763 c-10 -10 -14 -15 -8 -11 7 4 15 5 18 1 4 -3 7 -1 7 5 0 6
8 13 18 15 14 4 15 5 1 6 -9 0 -25 -7 -36 -16z"/>
<path d="M2106 762 c-2 -4 4 -8 15 -8 10 0 19 4 19 8 0 10 -27 10 -34 0z"/>
<path d="M1940 746 c0 -2 7 -6 15 -10 8 -3 15 -1 15 4 0 6 -7 10 -15 10 -8 0
-15 -2 -15 -4z"/>
<path d="M2120 85 c0 -8 4 -15 10 -15 5 0 7 7 4 15 -4 8 -8 15 -10 15 -2 0 -4
-7 -4 -15z"/>
</g>
</svg>
